<mxfile host="app.diagrams.net" modified="2023-07-27T09:33:01.872Z" agent="Mozilla/5.0 (Windows NT 10.0; Win64; x64) AppleWebKit/537.36 (KHTML, like Gecko) Chrome/115.0.0.0 Safari/537.36 Edg/115.0.1901.183" etag="pwxqAedGz16JSlO8CaZr" version="21.6.5" type="github">
  <diagram name="第 1 页" id="edIoZuRB3zaZxlKi64ll">
    <mxGraphModel dx="1194" dy="810" grid="0" gridSize="10" guides="1" tooltips="1" connect="1" arrows="1" fold="1" page="1" pageScale="1" pageWidth="2000" pageHeight="1400" math="0" shadow="0">
      <root>
        <mxCell id="0" />
        <mxCell id="1" parent="0" />
        <mxCell id="qfht6-_884fc5smqtkyN-154" value="" style="rounded=0;whiteSpace=wrap;html=1;fontSize=16;dashed=1;" vertex="1" parent="1">
          <mxGeometry x="277" y="131" width="130" height="296" as="geometry" />
        </mxCell>
        <mxCell id="qfht6-_884fc5smqtkyN-155" value="" style="rounded=0;whiteSpace=wrap;html=1;fontSize=16;" vertex="1" parent="1">
          <mxGeometry x="471" y="131" width="130" height="296" as="geometry" />
        </mxCell>
        <mxCell id="qfht6-_884fc5smqtkyN-158" value="" style="rounded=0;whiteSpace=wrap;html=1;fontSize=16;" vertex="1" parent="1">
          <mxGeometry x="275" y="558" width="257" height="105" as="geometry" />
        </mxCell>
        <mxCell id="qfht6-_884fc5smqtkyN-183" style="edgeStyle=none;rounded=0;orthogonalLoop=1;jettySize=auto;html=1;exitX=0.25;exitY=1;exitDx=0;exitDy=0;entryX=0.598;entryY=0;entryDx=0;entryDy=0;entryPerimeter=0;" edge="1" parent="1" source="qfht6-_884fc5smqtkyN-157" target="qfht6-_884fc5smqtkyN-177">
          <mxGeometry relative="1" as="geometry" />
        </mxCell>
        <mxCell id="qfht6-_884fc5smqtkyN-157" value="网络交换模块" style="rounded=0;whiteSpace=wrap;html=1;fontSize=16;" vertex="1" parent="1">
          <mxGeometry x="277" y="463" width="586" height="47" as="geometry" />
        </mxCell>
        <mxCell id="qfht6-_884fc5smqtkyN-159" value="系统监控设备" style="rounded=0;whiteSpace=wrap;html=1;fontSize=16;" vertex="1" parent="1">
          <mxGeometry x="673" y="556" width="190" height="105" as="geometry" />
        </mxCell>
        <mxCell id="qfht6-_884fc5smqtkyN-161" value="分区状态监控器" style="rounded=0;whiteSpace=wrap;html=1;fontSize=16;" vertex="1" parent="1">
          <mxGeometry x="292" y="165" width="33" height="152" as="geometry" />
        </mxCell>
        <mxCell id="qfht6-_884fc5smqtkyN-197" value="" style="edgeStyle=none;rounded=0;orthogonalLoop=1;jettySize=auto;html=1;dashed=1;" edge="1" parent="1" source="qfht6-_884fc5smqtkyN-162" target="qfht6-_884fc5smqtkyN-164">
          <mxGeometry relative="1" as="geometry" />
        </mxCell>
        <mxCell id="qfht6-_884fc5smqtkyN-162" value="分区状态监控器" style="rounded=0;whiteSpace=wrap;html=1;fontSize=16;" vertex="1" parent="1">
          <mxGeometry x="325" y="165" width="33" height="152" as="geometry" />
        </mxCell>
        <mxCell id="qfht6-_884fc5smqtkyN-198" value="" style="edgeStyle=none;rounded=0;orthogonalLoop=1;jettySize=auto;html=1;exitX=0.25;exitY=1;exitDx=0;exitDy=0;dashed=1;" edge="1" parent="1" source="qfht6-_884fc5smqtkyN-163" target="qfht6-_884fc5smqtkyN-164">
          <mxGeometry relative="1" as="geometry" />
        </mxCell>
        <mxCell id="qfht6-_884fc5smqtkyN-163" value="分区状态监控器" style="rounded=0;whiteSpace=wrap;html=1;fontSize=16;" vertex="1" parent="1">
          <mxGeometry x="358" y="165" width="33" height="152" as="geometry" />
        </mxCell>
        <mxCell id="qfht6-_884fc5smqtkyN-181" style="edgeStyle=none;rounded=0;orthogonalLoop=1;jettySize=auto;html=1;exitX=0.5;exitY=1;exitDx=0;exitDy=0;entryX=0.111;entryY=0;entryDx=0;entryDy=0;entryPerimeter=0;" edge="1" parent="1" source="qfht6-_884fc5smqtkyN-164" target="qfht6-_884fc5smqtkyN-157">
          <mxGeometry relative="1" as="geometry" />
        </mxCell>
        <mxCell id="qfht6-_884fc5smqtkyN-164" value="模块状态监控器" style="rounded=0;whiteSpace=wrap;html=1;fontSize=16;" vertex="1" parent="1">
          <mxGeometry x="293" y="346" width="98" height="65" as="geometry" />
        </mxCell>
        <mxCell id="qfht6-_884fc5smqtkyN-192" style="edgeStyle=none;rounded=0;orthogonalLoop=1;jettySize=auto;html=1;exitX=0.5;exitY=1;exitDx=0;exitDy=0;entryX=0.442;entryY=0;entryDx=0;entryDy=0;entryPerimeter=0;" edge="1" parent="1" source="qfht6-_884fc5smqtkyN-165" target="qfht6-_884fc5smqtkyN-157">
          <mxGeometry relative="1" as="geometry" />
        </mxCell>
        <mxCell id="qfht6-_884fc5smqtkyN-165" value="模块状态监控器" style="rounded=0;whiteSpace=wrap;html=1;fontSize=16;" vertex="1" parent="1">
          <mxGeometry x="487" y="299" width="98" height="65" as="geometry" />
        </mxCell>
        <mxCell id="qfht6-_884fc5smqtkyN-172" value="" style="rounded=0;whiteSpace=wrap;html=1;fontSize=16;" vertex="1" parent="1">
          <mxGeometry x="732" y="131" width="130" height="296" as="geometry" />
        </mxCell>
        <mxCell id="qfht6-_884fc5smqtkyN-199" style="edgeStyle=none;rounded=0;orthogonalLoop=1;jettySize=auto;html=1;exitX=0.5;exitY=1;exitDx=0;exitDy=0;entryX=0.25;entryY=0;entryDx=0;entryDy=0;dashed=1;" edge="1" parent="1" source="qfht6-_884fc5smqtkyN-173" target="qfht6-_884fc5smqtkyN-176">
          <mxGeometry relative="1" as="geometry" />
        </mxCell>
        <mxCell id="qfht6-_884fc5smqtkyN-173" value="分区状态监控器" style="rounded=0;whiteSpace=wrap;html=1;fontSize=16;" vertex="1" parent="1">
          <mxGeometry x="747" y="165" width="33" height="152" as="geometry" />
        </mxCell>
        <mxCell id="qfht6-_884fc5smqtkyN-200" style="edgeStyle=none;rounded=0;orthogonalLoop=1;jettySize=auto;html=1;exitX=0.5;exitY=1;exitDx=0;exitDy=0;entryX=0.5;entryY=0;entryDx=0;entryDy=0;dashed=1;" edge="1" parent="1" source="qfht6-_884fc5smqtkyN-174" target="qfht6-_884fc5smqtkyN-176">
          <mxGeometry relative="1" as="geometry" />
        </mxCell>
        <mxCell id="qfht6-_884fc5smqtkyN-174" value="分区状态监控器" style="rounded=0;whiteSpace=wrap;html=1;fontSize=16;" vertex="1" parent="1">
          <mxGeometry x="780" y="165" width="33" height="152" as="geometry" />
        </mxCell>
        <mxCell id="qfht6-_884fc5smqtkyN-201" style="edgeStyle=none;rounded=0;orthogonalLoop=1;jettySize=auto;html=1;exitX=0.5;exitY=1;exitDx=0;exitDy=0;entryX=0.75;entryY=0;entryDx=0;entryDy=0;dashed=1;" edge="1" parent="1" source="qfht6-_884fc5smqtkyN-175" target="qfht6-_884fc5smqtkyN-176">
          <mxGeometry relative="1" as="geometry" />
        </mxCell>
        <mxCell id="qfht6-_884fc5smqtkyN-175" value="分区状态监控器" style="rounded=0;whiteSpace=wrap;html=1;fontSize=16;" vertex="1" parent="1">
          <mxGeometry x="813" y="165" width="33" height="152" as="geometry" />
        </mxCell>
        <mxCell id="qfht6-_884fc5smqtkyN-194" style="edgeStyle=none;rounded=0;orthogonalLoop=1;jettySize=auto;html=1;exitX=0.5;exitY=1;exitDx=0;exitDy=0;entryX=0.887;entryY=0;entryDx=0;entryDy=0;entryPerimeter=0;" edge="1" parent="1" source="qfht6-_884fc5smqtkyN-176" target="qfht6-_884fc5smqtkyN-157">
          <mxGeometry relative="1" as="geometry" />
        </mxCell>
        <mxCell id="qfht6-_884fc5smqtkyN-176" value="模块状态监控器" style="rounded=0;whiteSpace=wrap;html=1;fontSize=16;" vertex="1" parent="1">
          <mxGeometry x="748" y="346" width="98" height="65" as="geometry" />
        </mxCell>
        <mxCell id="qfht6-_884fc5smqtkyN-185" style="edgeStyle=none;rounded=0;orthogonalLoop=1;jettySize=auto;html=1;exitX=1;exitY=0.75;exitDx=0;exitDy=0;dashed=1;" edge="1" parent="1">
          <mxGeometry relative="1" as="geometry">
            <mxPoint x="516" y="604" as="sourcePoint" />
            <mxPoint x="674" y="604" as="targetPoint" />
          </mxGeometry>
        </mxCell>
        <mxCell id="qfht6-_884fc5smqtkyN-177" value="系统状态监控器" style="rounded=0;whiteSpace=wrap;html=1;fontSize=16;" vertex="1" parent="1">
          <mxGeometry x="287" y="569" width="229" height="46" as="geometry" />
        </mxCell>
        <mxCell id="qfht6-_884fc5smqtkyN-184" value="模块M" style="text;html=1;strokeColor=none;fillColor=none;align=center;verticalAlign=middle;whiteSpace=wrap;rounded=0;fontSize=16;" vertex="1" parent="1">
          <mxGeometry x="387" y="622" width="60" height="30" as="geometry" />
        </mxCell>
        <mxCell id="qfht6-_884fc5smqtkyN-187" value="模块2" style="text;html=1;strokeColor=none;fillColor=none;align=center;verticalAlign=middle;whiteSpace=wrap;rounded=0;fontSize=16;" vertex="1" parent="1">
          <mxGeometry x="506" y="146" width="60" height="30" as="geometry" />
        </mxCell>
        <mxCell id="qfht6-_884fc5smqtkyN-188" value="模块1" style="text;html=1;strokeColor=none;fillColor=none;align=center;verticalAlign=middle;whiteSpace=wrap;rounded=0;fontSize=16;" vertex="1" parent="1">
          <mxGeometry x="309" y="133" width="60" height="30" as="geometry" />
        </mxCell>
        <mxCell id="qfht6-_884fc5smqtkyN-189" value="模块N" style="text;html=1;strokeColor=none;fillColor=none;align=center;verticalAlign=middle;whiteSpace=wrap;rounded=0;fontSize=16;" vertex="1" parent="1">
          <mxGeometry x="763" y="131" width="60" height="30" as="geometry" />
        </mxCell>
        <mxCell id="qfht6-_884fc5smqtkyN-190" value="..." style="text;html=1;strokeColor=none;fillColor=none;align=center;verticalAlign=middle;whiteSpace=wrap;rounded=0;fontSize=43;" vertex="1" parent="1">
          <mxGeometry x="632" y="330" width="60" height="30" as="geometry" />
        </mxCell>
        <mxCell id="qfht6-_884fc5smqtkyN-196" value="" style="endArrow=classic;html=1;rounded=0;exitX=0.5;exitY=1;exitDx=0;exitDy=0;entryX=0.25;entryY=0;entryDx=0;entryDy=0;dashed=1;" edge="1" parent="1" source="qfht6-_884fc5smqtkyN-161" target="qfht6-_884fc5smqtkyN-164">
          <mxGeometry width="50" height="50" relative="1" as="geometry">
            <mxPoint x="676" y="461" as="sourcePoint" />
            <mxPoint x="726" y="411" as="targetPoint" />
          </mxGeometry>
        </mxCell>
        <mxCell id="qfht6-_884fc5smqtkyN-202" value="图 3-1 系统故障检测和诊断原理" style="text;html=1;strokeColor=none;fillColor=none;align=center;verticalAlign=middle;whiteSpace=wrap;rounded=0;fontSize=17;" vertex="1" parent="1">
          <mxGeometry x="417" y="679" width="337" height="30" as="geometry" />
        </mxCell>
      </root>
    </mxGraphModel>
  </diagram>
</mxfile>
